<svg width="103" height="103" viewBox="0 0 103 103" fill="none" xmlns="http://www.w3.org/2000/svg">
<path d="M76.8666 55.7917C76.8666 65.2726 84.5143 72.9583 93.9481 72.9583H102.489V77.25H93.9481C84.5143 77.25 76.8666 84.9358 76.8666 94.4167V103H72.5962V94.4167C72.5962 84.9358 64.9486 77.25 55.5148 77.25H46.974V72.9583H55.5148C64.9486 72.9583 72.5962 65.2726 72.5962 55.7917V12.875H76.8666V55.7917Z" fill="white"/>
<path d="M29.8926 8.58333C29.8926 18.0642 37.5402 25.75 46.974 25.75H55.5148V30.0417H46.974C37.5402 30.0417 29.8926 37.7274 29.8926 47.2083V90.125H25.6222V47.2083C25.6222 37.7274 17.9746 30.0417 8.54074 30.0417H0V25.75H8.54074C17.9746 25.75 25.6222 18.0642 25.6222 8.58333V0H29.8926V8.58333Z" fill="white"/>
</svg>
